<svg width="22" height="31" viewBox="0 0 22 31" fill="none" xmlns="http://www.w3.org/2000/svg">
<path fill-rule="evenodd" clip-rule="evenodd" d="M5.42511 20.1036C5.42511 17.0534 7.90667 14.5718 10.957 14.5718C14.0073 14.5718 16.4889 17.0534 16.4889 20.1036C16.4889 23.1539 14.0073 25.6355 10.957 25.6355C7.90673 25.6355 5.42511 23.1539 5.42511 20.1036ZM7.12245 20.7647L9.8596 23.5018L14.7915 18.5699L13.5485 17.327L9.8596 21.0159L8.3654 19.5217L7.12245 20.7647Z" fill="#58BEBF"/>
<path d="M16.5768 3.42322H14.3803C14.3802 1.53264 12.8476 0 10.957 0C9.06642 0 7.53378 1.53264 7.53378 3.42322H5.33722V7.81148H16.5767V3.42322H16.5768Z" fill="#58BEBF"/>
<path fill-rule="evenodd" clip-rule="evenodd" d="M18.2942 10.1461V4H21.8332V30.5768H0V4H3.539V10.1461H18.2942ZM3.62689 20.6805C3.62689 24.7001 6.89701 27.9702 10.9166 27.9702C14.9362 27.9702 18.2063 24.7001 18.2063 20.6805C18.2063 16.6611 14.9361 13.3909 10.9166 13.3909C6.89707 13.3909 3.62689 16.661 3.62689 20.6805Z" fill="#58BEBF"/>
</svg>
