<svg width="23" height="30" viewBox="0 0 23 30" fill="none" xmlns="http://www.w3.org/2000/svg">
<path d="M15.75 0H22.5V7.5H15.75V0Z" fill="white"/>
<path d="M0 0H6.75V7.5H0V0Z" fill="white"/>
<ellipse cx="11.625" cy="21" rx="4.125" ry="3.75" fill="white"/>
<path fill-rule="evenodd" clip-rule="evenodd" d="M2.25 21.375C2.25 16.6116 6.27941 12.75 11.25 12.75C16.2206 12.75 20.25 16.6116 20.25 21.375C20.25 26.1384 16.2206 30 11.25 30C6.27941 30 2.25 26.1384 2.25 21.375ZM5.39313 21.375C5.39313 24.4699 8.02055 26.9878 11.25 26.9878C14.4795 26.9878 17.1069 24.4699 17.1069 21.375C17.1069 18.2801 14.4795 15.7622 11.25 15.7622C8.02055 15.7622 5.39313 18.28 5.39313 21.375Z" fill="white"/>
<path d="M7.34766 11.3905C8.12223 11.0495 8.92592 10.8114 9.75 10.6768L8.13937 9H1.5L5.10209 12.75C5.791 12.2009 6.54211 11.7453 7.34766 11.3905Z" fill="white"/>
<path d="M12.75 10.6768C13.5741 10.8113 14.3778 11.0494 15.1523 11.3905C15.9579 11.7452 16.709 12.2008 17.3979 12.75L21 9H14.3606C13.9268 9.45163 13.3201 10.0832 12.75 10.6768Z" fill="white"/>
</svg>
