<svg width="217" height="42" viewBox="0 0 217 42" fill="none" xmlns="http://www.w3.org/2000/svg">
<path fill-rule="evenodd" clip-rule="evenodd" d="M125.707 12.4208C125.17 12.9104 124.459 13.1552 123.576 13.1552C122.693 13.1552 121.982 12.9104 121.445 12.4208C120.907 11.9312 120.638 11.3216 120.638 10.592C120.638 9.8432 120.907 9.224 121.445 8.7344C121.982 8.2448 122.693 8 123.576 8C124.459 8 125.17 8.2448 125.707 8.7344C126.245 9.224 126.514 9.8432 126.514 10.592C126.514 11.3216 126.245 11.9312 125.707 12.4208ZM62.4912 27.4112V31.184H51V10.8224H55.9248V27.4112H62.4912ZM76.56 30.392C75.3024 31.0544 73.8768 31.3856 72.2832 31.3856C70.6896 31.3856 69.2592 31.0544 67.992 30.392C66.7248 29.7296 65.7312 28.7744 65.0112 27.5264C64.2912 26.2784 63.9312 24.8192 63.9312 23.1488C63.9312 21.4784 64.2912 20.0192 65.0112 18.7712C65.7312 17.5232 66.7248 16.568 67.992 15.9056C69.2592 15.2432 70.6896 14.912 72.2832 14.912C73.8768 14.912 75.3024 15.2432 76.56 15.9056C77.8176 16.568 78.8064 17.5232 79.5264 18.7712C80.2464 20.0192 80.6064 21.4784 80.6064 23.1488C80.6064 24.8192 80.2464 26.2784 79.5264 27.5264C78.8064 28.7744 77.8176 29.7296 76.56 30.392ZM72.2832 27.0944C71.3424 27.0944 70.5504 26.7584 69.9072 26.0864C69.264 25.4144 68.9424 24.4352 68.9424 23.1488C68.9424 21.8624 69.264 20.8784 69.9072 20.1968C70.5504 19.5152 71.3424 19.1744 72.2832 19.1744C73.224 19.1744 74.0112 19.5152 74.6448 20.1968C75.2784 20.8784 75.5952 21.8624 75.5952 23.1488C75.5952 24.4352 75.2784 25.4144 74.6448 26.0864C74.0112 26.7584 73.224 27.0944 72.2832 27.0944ZM95.784 38.0096C94.5936 38.72 93.1152 39.0752 91.3488 39.0752C88.9296 39.0752 86.9952 38.504 85.5456 37.3616C84.096 36.2192 83.2272 34.6688 82.9392 32.7104H87.8064C87.96 33.3632 88.3104 33.872 88.8576 34.2368C89.4048 34.6016 90.12 34.784 91.0032 34.784C92.0208 34.784 92.8416 34.4912 93.4656 33.9056C94.0896 33.32 94.4016 32.384 94.4016 31.0976V28.2752C93.9792 29.2352 93.3264 29.9936 92.4432 30.5504C91.56 31.1072 90.504 31.3856 89.2752 31.3856C87.9504 31.3856 86.7648 31.0544 85.7184 30.392C84.672 29.7296 83.8464 28.7744 83.2416 27.5264C82.6368 26.2784 82.3344 24.8192 82.3344 23.1488C82.3344 21.4592 82.6368 19.9952 83.2416 18.7568C83.8464 17.5184 84.672 16.568 85.7184 15.9056C86.7648 15.2432 87.9504 14.912 89.2752 14.912C90.504 14.912 91.56 15.1904 92.4432 15.7472C93.3264 16.304 93.9792 17.0624 94.4016 18.0224V15.1136H99.2976V31.0976C99.2976 32.5952 99.0096 33.944 98.4336 35.144C97.8576 36.344 96.9744 37.2992 95.784 38.0096ZM90.8592 27.0656C89.8032 27.0656 88.9536 26.72 88.3104 26.0288C87.6672 25.3376 87.3456 24.3776 87.3456 23.1488C87.3456 21.92 87.6672 20.96 88.3104 20.2688C88.9536 19.5776 89.8032 19.232 90.8592 19.232C91.896 19.232 92.7456 19.5824 93.408 20.2832C94.0704 20.984 94.4016 21.9392 94.4016 23.1488C94.4016 24.3392 94.0704 25.2896 93.408 26C92.7456 26.7104 91.896 27.0656 90.8592 27.0656ZM114.49 30.392C113.232 31.0544 111.806 31.3856 110.213 31.3856C108.619 31.3856 107.189 31.0544 105.922 30.392C104.654 29.7296 103.661 28.7744 102.941 27.5264C102.221 26.2784 101.861 24.8192 101.861 23.1488C101.861 21.4784 102.221 20.0192 102.941 18.7712C103.661 17.5232 104.654 16.568 105.922 15.9056C107.189 15.2432 108.619 14.912 110.213 14.912C111.806 14.912 113.232 15.2432 114.49 15.9056C115.747 16.568 116.736 17.5232 117.456 18.7712C118.176 20.0192 118.536 21.4784 118.536 23.1488C118.536 24.8192 118.176 26.2784 117.456 27.5264C116.736 28.7744 115.747 29.7296 114.49 30.392ZM110.213 27.0944C109.272 27.0944 108.48 26.7584 107.837 26.0864C107.194 25.4144 106.872 24.4352 106.872 23.1488C106.872 21.8624 107.194 20.8784 107.837 20.1968C108.48 19.5152 109.272 19.1744 110.213 19.1744C111.154 19.1744 111.941 19.5152 112.574 20.1968C113.208 20.8784 113.525 21.8624 113.525 23.1488C113.525 24.4352 113.208 25.4144 112.574 26.0864C111.941 26.7584 111.154 27.0944 110.213 27.0944ZM126.024 15.1136H121.099V31.184H126.024V15.1136ZM134.347 28.2752V38.8448H129.422V15.1136H134.347V18.0224C134.75 17.0624 135.394 16.304 136.277 15.7472C137.16 15.1904 138.216 14.912 139.445 14.912C140.77 14.912 141.955 15.2432 143.002 15.9056C144.048 16.568 144.874 17.5184 145.478 18.7568C146.083 19.9952 146.386 21.4592 146.386 23.1488C146.386 24.8192 146.083 26.2784 145.478 27.5264C144.874 28.7744 144.048 29.7296 143.002 30.392C141.955 31.0544 140.77 31.3856 139.445 31.3856C138.216 31.3856 137.16 31.1072 136.277 30.5504C135.394 29.9936 134.75 29.2352 134.347 28.2752ZM137.861 27.0656C136.824 27.0656 135.974 26.7104 135.312 26C134.65 25.2896 134.318 24.3392 134.318 23.1488C134.318 21.9392 134.65 20.984 135.312 20.2832C135.974 19.5824 136.824 19.232 137.861 19.232C138.917 19.232 139.766 19.5776 140.41 20.2688C141.053 20.96 141.374 21.92 141.374 23.1488C141.374 24.3776 141.053 25.3376 140.41 26.0288C139.766 26.72 138.917 27.0656 137.861 27.0656ZM159.288 30.7808C158.347 31.184 157.234 31.3856 155.947 31.3856C153.778 31.3856 152.04 30.9056 150.734 29.9456C149.429 28.9856 148.632 27.6128 148.344 25.8272H153.096C153.173 26.5184 153.466 27.0464 153.974 27.4112C154.483 27.776 155.141 27.9584 155.947 27.9584C156.504 27.9584 156.926 27.8288 157.214 27.5696C157.502 27.3104 157.646 26.9696 157.646 26.5472C157.646 25.9904 157.382 25.592 156.854 25.352C156.326 25.112 155.467 24.8576 154.277 24.5888C153.086 24.3392 152.107 24.0704 151.339 23.7824C150.571 23.4944 149.909 23.0288 149.352 22.3856C148.795 21.7424 148.517 20.864 148.517 19.7504C148.517 18.3104 149.064 17.144 150.158 16.2512C151.253 15.3584 152.798 14.912 154.795 14.912C156.83 14.912 158.458 15.4208 159.677 16.4384C160.896 17.456 161.659 18.8 161.966 20.4704H157.358C157.224 19.8176 156.922 19.304 156.451 18.9296C155.981 18.5552 155.39 18.368 154.68 18.368C154.123 18.368 153.701 18.488 153.413 18.728C153.125 18.968 152.981 19.3088 152.981 19.7504C152.981 20.2496 153.245 20.624 153.773 20.8736C154.301 21.1232 155.131 21.3728 156.264 21.6224C157.493 21.9104 158.501 22.2032 159.288 22.5008C160.075 22.7984 160.757 23.2832 161.333 23.9552C161.909 24.6272 162.197 25.5296 162.197 26.6624C162.197 27.584 161.947 28.4 161.448 29.1104C160.949 29.8208 160.229 30.3776 159.288 30.7808ZM170.722 31.3568C171.931 31.3568 172.992 31.0784 173.904 30.5216C174.816 29.9648 175.502 29.216 175.963 28.2752V31.184H180.917V15.1136H175.963V23.6384C175.963 24.8096 175.675 25.712 175.099 26.3456C174.523 26.9792 173.736 27.296 172.738 27.296C171.778 27.296 171.014 26.9936 170.448 26.3888C169.882 25.784 169.598 24.9344 169.598 23.84V15.1136H164.702V24.4448C164.702 26.5952 165.245 28.2848 166.33 29.5136C167.414 30.7424 168.878 31.3568 170.722 31.3568ZM189.24 22.6592V31.184H184.315V15.1136H189.24V17.8496C189.662 16.9472 190.31 16.2368 191.184 15.7184C192.058 15.2 193.08 14.9408 194.251 14.9408C195.48 14.9408 196.565 15.224 197.506 15.7904C198.446 16.3568 199.157 17.168 199.637 18.224C200.194 17.2256 200.957 16.4288 201.926 15.8336C202.896 15.2384 203.966 14.9408 205.138 14.9408C207.115 14.9408 208.67 15.5504 209.803 16.7696C210.936 17.9888 211.502 19.6832 211.502 21.8528V31.184H206.606V22.4288C206.606 21.4112 206.333 20.6192 205.786 20.0528C205.238 19.4864 204.494 19.2032 203.554 19.2032C202.574 19.2032 201.802 19.5056 201.235 20.1104C200.669 20.7152 200.386 21.5648 200.386 22.6592V31.184H195.461V22.4288C195.461 21.4112 195.192 20.6192 194.654 20.0528C194.117 19.4864 193.378 19.2032 192.437 19.2032C191.458 19.2032 190.68 19.5008 190.104 20.096C189.528 20.6912 189.24 21.5456 189.24 22.6592Z" fill="#D8D8D8"/>
<circle cx="214.4" cy="12.8" r="2.4" fill="white"/>
<path fill-rule="evenodd" clip-rule="evenodd" d="M27.2 28C34.7111 28 40.8 21.732 40.8 14C40.8 6.26801 34.7111 0 27.2 0C19.8189 0 13.8111 6.05299 13.6054 13.6C13.6036 13.6 13.6018 13.6 13.6 13.6C6.08893 13.6 0 19.868 0 27.6C0 35.332 6.08893 41.6 13.6 41.6C20.9811 41.6 26.9889 35.547 27.1946 28C27.1964 28 27.1982 28 27.2 28ZM13.6 14C13.6 21.7301 19.686 27.997 27.1946 28C27.1982 27.8671 27.2 27.7338 27.2 27.6C27.2 19.8699 21.114 13.603 13.6054 13.6C13.6018 13.7329 13.6 13.8662 13.6 14Z" fill="#D8D8D8"/>
</svg>
