<svg width="70" height="70" viewBox="0 0 70 70" fill="none" xmlns="http://www.w3.org/2000/svg">
<path fill-rule="evenodd" clip-rule="evenodd" d="M44.1291 9.47871H70V46.5295H44.1293V70H25.8709V46.5295H0V9.47871H25.8709V5.4775L35 0L44.1291 5.4775V9.47871ZM35 4.78311L29.9724 7.79967H29.9723V9.47857H40.0276V7.79967L35 4.78311ZM40.0276 65.8984H29.9723V46.5295H40.0276V65.8984ZM4.10156 42.4279H65.8984V13.5803H4.10156V42.4279Z" fill="#F78434"/>
<path fill-rule="evenodd" clip-rule="evenodd" d="M27.3389 33.23L25.8329 37.1839L22 35.7241L28.3684 19.0036L31.7733 19L38.0877 35.7322L34.2504 37.1803L32.7596 33.23H27.3389ZM28.9012 29.1284H31.2118L30.0619 26.0809L28.9012 29.1284Z" fill="#F78434"/>
<path d="M48.2624 32.5099H43.473V18.844H39.3715V36.6114H48.2624V32.5099Z" fill="#F78434"/>
<path d="M60.4445 32.5098H54.7341V29.8352H60.0234V25.7336H54.7341V23.0588H60.4445V18.9573H50.6326V36.6114H60.4445V32.5098Z" fill="#F78434"/>
<path d="M14.4225 23.0678C15.9685 22.382 18.2923 24.0499 19.5359 25.17L22.0805 21.9531C18.3441 18.535 15.2096 18.5089 13.2177 19.147C11.233 19.7464 9.82463 21.3159 9.53574 23.2573C9.25834 25.121 10.0587 26.9133 11.6248 27.9342C11.8963 28.1112 13.7677 28.911 16.014 29.7538C16.8487 30.0615 17.7009 30.6126 17.5896 31.2358C17.4978 31.7496 16.7818 32.5097 15.5361 32.5097C13.5222 32.6266 12.0289 30.9845 10.9122 29.6363L7.87311 32.3907C9.74971 34.7916 12.2987 36.6792 15.5362 36.6113C18.5841 36.6113 21.1458 34.6538 21.6274 31.9567C21.9922 29.9139 21.0821 27.2513 17.4334 25.9055C15.813 25.3078 14.3003 24.6581 13.7753 24.429C13.4052 23.9655 13.5457 23.426 14.4225 23.0678Z" fill="#F78434"/>
</svg>
